<svg width="25" height="25" viewBox="0 0 25 25" fill="none" xmlns="http://www.w3.org/2000/svg">
<g id="Frame 1073716706">
<g id="Group 1073716316">
<path id="Vector" d="M6.40679 20.7219C6.13558 20.5864 6 20.2479 6 19.9093C6 19.8415 6 19.7061 6 19.6384C6 14.6271 6 9.61577 6 4.67221C6 4.40132 6.06779 4.19819 6.13558 3.9273C6.20341 3.79184 6.339 3.65642 6.47462 3.521C9.38999 6.43294 12.2376 9.34489 15.0851 12.2569C12.1698 14.9656 9.3222 17.8099 6.40679 20.7219Z" fill="white"/>
<path id="Vector_2" d="M17.9331 9.27714C17.1195 10.0898 16.2381 10.9024 15.4245 11.7828C12.7125 9.00626 9.9327 6.22973 7.2207 3.45321C7.2207 3.45321 7.2207 3.3855 7.28849 3.3855C10.8141 5.34937 14.3397 7.31327 17.9331 9.27714Z" fill="white"/>
<path id="Vector_3" d="M7.2207 20.7219C9.9327 18.013 12.7125 15.3043 15.4245 12.5955C16.1703 13.3404 16.9839 14.0853 17.8653 14.8979C14.3397 16.8618 10.8141 18.8257 7.28849 20.7219H7.2207Z" fill="white"/>
<path id="Vector_4" d="M18.3381 14.6268C17.4567 13.8142 16.6431 13.0016 15.7617 12.189C16.6431 11.3086 17.5245 10.4282 18.4059 9.54785C18.6771 9.68327 18.9483 9.81874 19.2195 10.0219C19.8975 10.4282 20.6433 10.7668 21.3213 11.1731C21.5247 11.2408 21.6603 11.3763 21.7959 11.5794C22.0671 11.918 22.0671 12.2567 21.7959 12.5953C21.6603 12.7307 21.5247 12.8661 21.3213 12.9339C20.3721 13.5433 19.3551 14.0851 18.3381 14.6268Z" fill="white"/>
</g>
</g>
</svg>
