<svg width="17" height="21" viewBox="0 0 17 21" fill="none" xmlns="http://www.w3.org/2000/svg">
<g id="&#232;&#139;&#185;&#230;&#158;&#156; LOGO &#233;&#187;&#145;">
<path id="&#60;Path&#62;" d="M13.8636 11.0586C13.8733 10.3048 14.0735 9.5657 14.4456 8.91009C14.8177 8.25447 15.3496 7.70363 15.9918 7.30881C15.5839 6.72616 15.0457 6.24666 14.42 5.9084C13.7943 5.57014 13.0983 5.38243 12.3874 5.36019C10.8708 5.201 9.40062 6.26766 8.62781 6.26766C7.84005 6.26766 6.65021 5.376 5.36893 5.40235C4.54017 5.42913 3.73247 5.67013 3.02455 6.10187C2.31662 6.53361 1.7326 7.14137 1.32939 7.86592C-0.417185 10.8899 0.885604 15.3342 2.55871 17.7786C3.3958 18.9755 4.37411 20.3125 5.65423 20.2651C6.9069 20.2131 7.37475 19.4663 8.88682 19.4663C10.3849 19.4663 10.8238 20.2651 12.1299 20.2349C13.4741 20.2131 14.321 19.0327 15.1287 17.8244C15.7302 16.9716 16.193 16.029 16.5 15.0315C15.7191 14.7012 15.0526 14.1484 14.5838 13.4419C14.115 12.7354 13.8645 11.9065 13.8636 11.0586Z" fill="white"/>
<path id="&#60;Path&#62;_2" d="M11.3968 3.75252C12.1297 2.8727 12.4908 1.74184 12.4034 0.600098C11.2837 0.7177 10.2494 1.25285 9.50658 2.09891C9.1434 2.51223 8.86525 2.99308 8.68801 3.51397C8.51078 4.03486 8.43795 4.58557 8.47368 5.13462C9.03373 5.14038 9.58779 5.01899 10.0941 4.77959C10.6005 4.54019 11.0459 4.18902 11.3968 3.75252Z" fill="white"/>
</g>
</svg>
