<svg width="20" height="20" viewBox="0 0 20 20" fill="none" xmlns="http://www.w3.org/2000/svg">
<g id="ic_youtibe">
<path id="youtube" fill-rule="evenodd" clip-rule="evenodd" d="M2.80999 15.6455C2.49618 15.5526 2.20985 15.3874 1.97517 15.1639C1.74048 14.9403 1.56432 14.665 1.46156 14.361C0.874337 12.7899 0.700345 6.22954 1.83129 4.93446C2.20769 4.51316 2.73911 4.25377 3.31022 4.21261C6.34419 3.89414 15.718 3.93661 16.7946 4.31876C17.0974 4.41466 17.374 4.5762 17.6038 4.7913C17.8335 5.00639 18.0104 5.26945 18.1212 5.56077C18.7628 7.18494 18.7846 13.0871 18.0342 14.6476C17.8352 15.0538 17.502 15.3828 17.0882 15.5818C15.9572 16.1338 4.31067 16.1231 2.80999 15.6455ZM7.62738 12.567L13.0646 9.80695L7.62738 7.0257V12.567Z" fill="currentColor"/>
</g>
</svg>