<svg width="146" height="30" viewBox="0 0 146 30" fill="none" xmlns="http://www.w3.org/2000/svg">
<g id="Group 1073713499">
<g id="Group 47641">
<path id="Vector 1 (Stroke)" fill-rule="evenodd" clip-rule="evenodd" d="M7.91358 5.49955C4.71608 5.49955 2.12399 8.13284 2.12399 11.3812V21.9611C2.12399 25.2094 4.71608 27.8427 7.91358 27.8427H30.9006C34.0981 27.8427 36.6902 25.2094 36.6902 21.9611V12.025C36.6902 11.4292 37.1657 10.9461 37.7522 10.9461C38.3387 10.9461 38.8142 11.4292 38.8142 12.025V21.9611C38.8142 26.4011 35.2712 30.0005 30.9006 30.0005H7.91358C3.54303 30.0005 0 26.4011 0 21.9611V11.3812C0 6.94115 3.54303 3.3418 7.91358 3.3418H30.2326C30.8191 3.3418 31.2946 3.82483 31.2946 4.42067C31.2946 5.01652 30.8191 5.49955 30.2326 5.49955H7.91358Z" fill="#868E96"/>
<path id="Union" d="M36.655 7.76095C36.655 8.3568 37.1305 8.83982 37.717 8.83982C38.3036 8.83982 38.779 8.3568 38.779 7.76095V5.49879H40.9715C41.5581 5.49879 42.0335 5.01576 42.0335 4.41991C42.0335 3.82407 41.5581 3.34104 40.9715 3.34104H38.779V1.07888C38.779 0.483029 38.3036 0 37.717 0C37.1305 -7.32045e-08 36.655 0.483029 36.655 1.07888V3.34104H34.394C33.8075 3.34104 33.332 3.82407 33.332 4.41991C33.332 5.01576 33.8075 5.49879 34.394 5.49879H36.655V7.76095Z" fill="#868E96"/>
<path id="Vector 2" d="M6.26913 22.3081H10.1403L10.1403 12.7896C10.1403 12.1493 10.5114 11.9544 10.7055 11.937C11.1714 11.8813 11.425 12.2328 11.5962 12.7026L14.7822 22.6387C15.7689 25.3812 18.4364 25.8579 19.6468 25.7535C22.456 25.5865 23.695 23.6074 23.9633 22.6387L27.2007 12.6852C27.42 12.0449 27.8059 11.9196 27.9715 11.937C28.4922 11.937 28.6224 12.459 28.6396 12.72V22.3081H32.5107V11.4149C32.0996 8.86739 29.6559 8.1725 28.5025 8.14349C25.3097 7.90684 23.9633 9.90102 23.6893 10.9277L20.2292 21.5772C20.0648 22.1758 19.624 22.2791 19.4242 22.2559C18.8349 22.2559 18.5849 21.8035 18.5335 21.5772L15.0392 10.6667C13.9703 8.2862 11.3165 7.9811 10.1232 8.12611C6.94402 8.48806 6.22917 10.8755 6.26913 12.024V22.3081Z" fill="#868E96"/>
</g>
<g id="Mnet Plus">
<path d="M50 22.4545V7.5249H52.5297L57.4648 17.4365L62.3999 7.5249H64.9296V22.4545H62.2962V13.5382L57.9625 22.4545H56.9672L52.6334 13.5382V22.4545H50Z" fill="#868E96"/>
<path d="M75.0559 22.4545V17.167C75.0559 16.9112 75.0421 16.5864 75.0144 16.1924C74.9868 15.7915 74.9004 15.3906 74.7552 14.9897C74.6101 14.5888 74.3716 14.2536 74.0399 13.984C73.715 13.7145 73.2519 13.5797 72.6506 13.5797C72.4087 13.5797 72.1495 13.6177 71.873 13.6937C71.5965 13.7698 71.3373 13.9184 71.0954 14.1396C70.8535 14.3538 70.653 14.6718 70.4941 15.0934C70.342 15.515 70.266 16.0749 70.266 16.773L68.6486 16.0058C68.6486 15.121 68.8283 14.2916 69.1877 13.5175C69.5471 12.7434 70.0863 12.1178 70.8051 11.6409C71.5308 11.164 72.4432 10.9255 73.5422 10.9255C74.42 10.9255 75.1354 11.0741 75.6883 11.3714C76.2413 11.6686 76.6698 12.0453 76.9739 12.5014C77.285 12.9576 77.5062 13.4345 77.6375 13.9322C77.7688 14.4229 77.8483 14.8722 77.8759 15.28C77.9036 15.6878 77.9174 15.985 77.9174 16.1716V22.4545H75.0559ZM67.4045 22.4545V11.2573H69.9135V14.969H70.266V22.4545H67.4045Z" fill="#868E96"/>
<path d="M85.1951 22.7656C84.0478 22.7656 83.0352 22.5202 82.1574 22.0295C81.2865 21.5318 80.6022 20.851 80.1045 19.987C79.6138 19.1161 79.3684 18.1208 79.3684 17.0011C79.3684 15.7777 79.6103 14.7132 80.0942 13.8078C80.578 12.9023 81.245 12.2008 82.0951 11.7031C82.9453 11.1986 83.9233 10.9463 85.0292 10.9463C86.2043 10.9463 87.203 11.2228 88.0255 11.7757C88.848 12.3286 89.4563 13.1062 89.8503 14.1085C90.2442 15.1107 90.3825 16.2891 90.265 17.6439H87.476V16.6071C87.476 15.4666 87.2929 14.6476 86.9265 14.1499C86.5671 13.6454 85.9762 13.3931 85.1536 13.3931C84.1929 13.3931 83.4844 13.6868 83.0282 14.2743C82.579 14.8549 82.3543 15.7155 82.3543 16.8559C82.3543 17.8996 82.579 18.7083 83.0282 19.282C83.4844 19.8488 84.1514 20.1321 85.0292 20.1321C85.5822 20.1321 86.0556 20.0112 86.4496 19.7693C86.8436 19.5274 87.1443 19.1783 87.3516 18.7221L90.1717 19.5308C89.75 20.5538 89.083 21.3486 88.1707 21.9154C87.2652 22.4822 86.2734 22.7656 85.1951 22.7656ZM81.4834 17.6439V15.5496H88.9068V17.6439H81.4834Z" fill="#868E96"/>
<path d="M98.9096 22.4545C98.1355 22.5997 97.3752 22.6619 96.6287 22.6412C95.8891 22.6273 95.2256 22.4995 94.6381 22.2575C94.0575 22.0087 93.6151 21.6113 93.311 21.0652C93.0345 20.5538 92.8894 20.0354 92.8756 19.5101C92.8617 18.9779 92.8548 18.3765 92.8548 17.7061V8.14697H95.6749V17.5402C95.6749 17.9756 95.6783 18.3696 95.6852 18.7221C95.6991 19.0677 95.7716 19.3442 95.903 19.5515C96.1518 19.9455 96.5492 20.1598 97.0953 20.1944C97.6413 20.2289 98.2461 20.2013 98.9096 20.1114V22.4545ZM90.9471 13.4345V11.2573H98.9096V13.4345H90.9471Z" fill="#868E96"/>
<path d="M104.727 22.4545V7.5249H111.03C111.175 7.5249 111.369 7.53181 111.611 7.54564C111.86 7.55255 112.081 7.57328 112.274 7.60784C113.166 7.74608 113.895 8.03983 114.462 8.48911C115.036 8.93838 115.457 9.50515 115.727 10.1894C115.996 10.8668 116.131 11.6236 116.131 12.46C116.131 13.2963 115.993 14.0566 115.716 14.7409C115.447 15.4183 115.025 15.9816 114.452 16.4308C113.885 16.8801 113.159 17.1739 112.274 17.3121C112.081 17.3398 111.86 17.3605 111.611 17.3743C111.362 17.3881 111.168 17.395 111.03 17.395H107.547V22.4545H104.727ZM107.547 14.7616H110.906C111.051 14.7616 111.21 14.7547 111.383 14.7409C111.556 14.7271 111.714 14.6994 111.86 14.6579C112.24 14.5543 112.534 14.3815 112.741 14.1396C112.948 13.8907 113.09 13.6177 113.166 13.3205C113.249 13.0164 113.29 12.7295 113.29 12.46C113.29 12.1904 113.249 11.907 113.166 11.6098C113.09 11.3057 112.948 11.0327 112.741 10.7908C112.534 10.5419 112.24 10.3657 111.86 10.262C111.714 10.2205 111.556 10.1929 111.383 10.1791C111.21 10.1652 111.051 10.1583 110.906 10.1583H107.547V14.7616Z" fill="#868E96"/>
<path d="M118.005 22.4545V7.21387H120.826V22.4545H118.005Z" fill="#868E96"/>
<path d="M127.687 22.7863C126.809 22.7863 126.094 22.6377 125.541 22.3405C124.988 22.0433 124.556 21.6666 124.245 21.2104C123.941 20.7542 123.723 20.2808 123.592 19.79C123.46 19.2924 123.381 18.8396 123.353 18.4318C123.326 18.024 123.312 17.7268 123.312 17.5402V11.2573H126.173V16.5449C126.173 16.8006 126.187 17.1289 126.215 17.5298C126.242 17.9238 126.329 18.3212 126.474 18.7221C126.619 19.123 126.854 19.4582 127.179 19.7278C127.511 19.9974 127.977 20.1321 128.579 20.1321C128.82 20.1321 129.08 20.0941 129.356 20.0181C129.633 19.9421 129.892 19.7969 130.134 19.5827C130.376 19.3615 130.573 19.0401 130.725 18.6184C130.884 18.1899 130.963 17.6301 130.963 16.9389L132.581 17.7061C132.581 18.5908 132.401 19.4202 132.041 20.1944C131.682 20.9685 131.139 21.594 130.414 22.0709C129.695 22.5478 128.786 22.7863 127.687 22.7863ZM131.316 22.4545V18.7429H130.963V11.2573H133.804V22.4545H131.316Z" fill="#868E96"/>
<path d="M140.662 22.7656C139.252 22.7656 138.112 22.4476 137.241 21.8117C136.377 21.1689 135.851 20.2635 135.665 19.0954L138.547 18.6599C138.665 19.1852 138.924 19.5965 139.325 19.8937C139.732 20.1909 140.247 20.3395 140.869 20.3395C141.381 20.3395 141.775 20.2427 142.051 20.0492C142.328 19.8488 142.466 19.5723 142.466 19.2198C142.466 18.9986 142.411 18.8223 142.3 18.691C142.19 18.5528 141.941 18.418 141.554 18.2867C141.174 18.1554 140.579 17.9826 139.77 17.7683C138.858 17.5333 138.129 17.2706 137.583 16.9803C137.037 16.69 136.643 16.3444 136.401 15.9436C136.159 15.5358 136.038 15.045 136.038 14.4713C136.038 13.7525 136.221 13.1304 136.588 12.6051C136.954 12.0729 137.469 11.6651 138.132 11.3817C138.803 11.0914 139.591 10.9463 140.496 10.9463C141.374 10.9463 142.152 11.0811 142.829 11.3506C143.506 11.6202 144.052 12.0038 144.467 12.5014C144.889 12.9991 145.148 13.5866 145.245 14.264L142.362 14.7824C142.314 14.3676 142.134 14.0393 141.823 13.7974C141.512 13.5555 141.091 13.4138 140.558 13.3723C140.04 13.3378 139.622 13.4069 139.304 13.5797C138.993 13.7525 138.837 14.0013 138.837 14.3262C138.837 14.5197 138.903 14.6821 139.034 14.8135C139.173 14.9448 139.452 15.0796 139.874 15.2178C140.303 15.356 140.952 15.5358 141.823 15.7569C142.673 15.9781 143.354 16.2373 143.866 16.5345C144.384 16.8248 144.761 17.1773 144.996 17.592C145.231 17.9998 145.348 18.494 145.348 19.0746C145.348 20.222 144.934 21.124 144.104 21.7806C143.275 22.4373 142.127 22.7656 140.662 22.7656Z" fill="#868E96"/>
</g>
</g>
</svg>
